{
  "accessors": [
    {
      "bufferView": 2,
      "componentType": 5126,
      "count": 65532,
      "max": [
        3.587959051132202,
        -0.07769999653100967,
        2.3332600593566895
      ],
      "min": [
        -5.294838905334473,
        -6.450595855712891,
        -1.2611099481582642
      ],
      "type": "VEC3"
    },
    {
      "bufferView": 2,
      "byteOffset": 786384,
      "componentType": 5126,
      "count": 65532,
      "max": [
        0.999762773513794,
        0.9999687671661377,
        0.9999974966049194
      ],
      "min": [
        -0.9999817609786987,
        -0.9998406171798706,
        -0.9999984502792358
      ],
      "type": "VEC3"
    },
    {
      "bufferView": 1,
      "componentType": 5126,
      "count": 65532,
      "max": [
        0.9992679953575134,
        0.9938420057296753
      ],
      "min": [
        0.0007319999858736992,
        0.0007389999809674919
      ],
      "type": "VEC2"
    },
    {
      "bufferView": 0,
      "componentType": 5125,
      "count": 363345,
      "type": "SCALAR"
    },
    {
      "bufferView": 2,
      "byteOffset": 1572768,
      "componentType": 5126,
      "count": 13370,
      "max": [
        3.587959051132202,
        -0.0789949968457222,
        2.3333261013031006
      ],
      "min": [
        -1.7761950492858887,
        -6.4403557777404785,
        -0.6992419958114624
      ],
      "type": "VEC3"
    },
    {
      "bufferView": 2,
      "byteOffset": 1733208,
      "componentType": 5126,
      "count": 13370,
      "max": [
        0.999995768070221,
        0.9999687671661377,
        0.9999825358390808
      ],
      "min": [
        -0.7566550970077515,
        -0.9996313452720642,
        -0.9835100173950195
      ],
      "type": "VEC3"
    },
    {
      "bufferView": 1,
      "byteOffset": 524256,
      "componentType": 5126,
      "count": 13370,
      "max": [
        0.9992679953575134,
        0.9992610216140747
      ],
      "min": [
        0.0007319999858736992,
        0.0007389999809674919
      ],
      "type": "VEC2"
    },
    {
      "bufferView": 0,
      "byteOffset": 1453380,
      "componentType": 5125,
      "count": 72621,
      "type": "SCALAR"
    }
  ],
  "asset": {
    "extras": {
      "author": "xplorazzi (https://sketchfab.com/xplorazzi)",
      "license": "CC-BY-4.0 (http://creativecommons.org/licenses/by/4.0/)",
      "source": "https://sketchfab.com/3d-models/tide-7189f8017bfa42caae56cfe1b1d5d193",
      "title": "Tide"
    },
    "generator": "Sketchfab-12.63.0",
    "version": "2.0"
  },
  "bufferViews": [
    {
      "buffer": 0,
      "byteLength": 1743864,
      "name": "floatBufferViews",
      "target": 34963
    },
    {
      "buffer": 0,
      "byteLength": 631216,
      "byteOffset": 1743864,
      "byteStride": 8,
      "name": "floatBufferViews",
      "target": 34962
    },
    {
      "buffer": 0,
      "byteLength": 1893648,
      "byteOffset": 2375080,
      "byteStride": 12,
      "name": "floatBufferViews",
      "target": 34962
    }
  ],
  "buffers": [
    {
      "byteLength": 4268728,
      "uri": "scene.bin"
    }
  ],
  "extensionsUsed": [
    "KHR_materials_unlit"
  ],
  "images": [
    {
      "uri": "textures/Material_0_baseColor.jpeg"
    }
  ],
  "materials": [
    {
      "doubleSided": true,
      "extensions": {
        "KHR_materials_unlit": {}
      },
      "name": "Material_0",
      "pbrMetallicRoughness": {
        "baseColorTexture": {
          "index": 0
        },
        "metallicFactor": 0.0
      }
    }
  ],
  "meshes": [
    {
      "name": "Object_0",
      "primitives": [
        {
          "attributes": {
            "NORMAL": 1,
            "POSITION": 0,
            "TEXCOORD_0": 2
          },
          "indices": 3,
          "material": 0,
          "mode": 4
        }
      ]
    },
    {
      "name": "Object_1",
      "primitives": [
        {
          "attributes": {
            "NORMAL": 5,
            "POSITION": 4,
            "TEXCOORD_0": 6
          },
          "indices": 7,
          "material": 0,
          "mode": 4
        }
      ]
    }
  ],
  "nodes": [
    {
      "children": [
        1
      ],
      "matrix": [
        1.0,
        -4.8033446892643715e-32,
        1.6081226229577292e-16,
        0.0,
        1.232595164407831e-32,
        -1.0,
        -4.440892098500626e-16,
        0.0,
        1.6081226229577292e-16,
        4.440892098500626e-16,
        -1.0,
        0.0,
        -1.1102230246251565e-16,
        -2.728045940399171,
        3.800267696380615,
        1.0
      ],
      "name": "Sketchfab_model"
    },
    {
      "children": [
        2,
        3
      ],
      "name": "tide.obj.cleaner.materialmerger.gles"
    },
    {
      "mesh": 0,
      "name": "Object_2"
    },
    {
      "mesh": 1,
      "name": "Object_3"
    }
  ],
  "samplers": [
    {
      "magFilter": 9729,
      "minFilter": 9987,
      "wrapS": 10497,
      "wrapT": 10497
    }
  ],
  "scene": 0,
  "scenes": [
    {
      "name": "Sketchfab_Scene",
      "nodes": [
        0
      ]
    }
  ],
  "textures": [
    {
      "sampler": 0,
      "source": 0
    }
  ]
}
