{
  "accessors": [
    {
      "bufferView": 2,
      "componentType": 5126,
      "count": 616,
      "max": [
        16.140033721923828,
        15.894834518432617,
        61.321495056152344
      ],
      "min": [
        -16.140033721923828,
        -15.894830703735352,
        0.0
      ],
      "type": "VEC3"
    },
    {
      "bufferView": 2,
      "byteOffset": 7392,
      "componentType": 5126,
      "count": 616,
      "max": [
        1.0,
        1.0,
        1.0
      ],
      "min": [
        -1.0,
        -1.0,
        -1.0
      ],
      "type": "VEC3"
    },
    {
      "bufferView": 1,
      "componentType": 5126,
      "count": 616,
      "max": [
        1.7742422819137573,
        2.0925252437591553
      ],
      "min": [
        0.21944862604141235,
        0.0
      ],
      "type": "VEC2"
    },
    {
      "bufferView": 0,
      "componentType": 5125,
      "count": 2040,
      "type": "SCALAR"
    },
    {
      "bufferView": 2,
      "byteOffset": 14784,
      "componentType": 5126,
      "count": 339,
      "max": [
        28.431350708007813,
        27.999414443969727,
        56.46825408935547
      ],
      "min": [
        -28.431350708007813,
        -27.999427795410156,
        0.0
      ],
      "type": "VEC3"
    },
    {
      "bufferView": 2,
      "byteOffset": 18852,
      "componentType": 5126,
      "count": 339,
      "max": [
        1.0,
        1.0,
        1.0
      ],
      "min": [
        -1.0,
        -1.0,
        -1.0
      ],
      "type": "VEC3"
    },
    {
      "bufferView": 1,
      "byteOffset": 4928,
      "componentType": 5126,
      "count": 339,
      "max": [
        0.9924038648605347,
        1.0
      ],
      "min": [
        0.007596135139465332,
        2.9802322387695313e-08
      ],
      "type": "VEC2"
    },
    {
      "bufferView": 0,
      "byteOffset": 8160,
      "componentType": 5125,
      "count": 1068,
      "type": "SCALAR"
    },
    {
      "bufferView": 2,
      "byteOffset": 22920,
      "componentType": 5126,
      "count": 860,
      "max": [
        16.0166072845459,
        1.774678349494934,
        25.603612899780273
      ],
      "min": [
        -7.562172889709473,
        -2.04526424407959,
        -30.852787017822266
      ],
      "type": "VEC3"
    },
    {
      "bufferView": 2,
      "byteOffset": 33240,
      "componentType": 5126,
      "count": 860,
      "max": [
        1.0,
        1.0,
        1.0
      ],
      "min": [
        -1.0,
        -1.0,
        -1.0
      ],
      "type": "VEC3"
    },
    {
      "bufferView": 0,
      "byteOffset": 12432,
      "componentType": 5125,
      "count": 4584,
      "type": "SCALAR"
    },
    {
      "bufferView": 2,
      "byteOffset": 43560,
      "componentType": 5126,
      "count": 66,
      "max": [
        14.297697067260742,
        3.076861619949341,
        8.119324684143066
      ],
      "min": [
        -14.297697067260742,
        -3.076861619949341,
        0.0
      ],
      "type": "VEC3"
    },
    {
      "bufferView": 2,
      "byteOffset": 44352,
      "componentType": 5126,
      "count": 66,
      "max": [
        0.5029072165489197,
        1.0,
        0.9994892477989197
      ],
      "min": [
        -1.0,
        -1.0,
        -1.0
      ],
      "type": "VEC3"
    },
    {
      "bufferView": 1,
      "byteOffset": 7640,
      "componentType": 5126,
      "count": 66,
      "max": [
        1.0,
        1.0
      ],
      "min": [
        0.0,
        0.0
      ],
      "type": "VEC2"
    },
    {
      "bufferView": 0,
      "byteOffset": 30768,
      "componentType": 5125,
      "count": 168,
      "type": "SCALAR"
    },
    {
      "bufferView": 2,
      "byteOffset": 45144,
      "componentType": 5126,
      "count": 72,
      "max": [
        15.566585540771484,
        2.360982894897461,
        3.388471841812134
      ],
      "min": [
        -15.5665864944458,
        -2.360982894897461,
        -3.3529469966888428
      ],
      "type": "VEC3"
    },
    {
      "bufferView": 2,
      "byteOffset": 46008,
      "componentType": 5126,
      "count": 72,
      "max": [
        1.0,
        1.0,
        1.0
      ],
      "min": [
        -1.0,
        -1.0,
        -1.0
      ],
      "type": "VEC3"
    },
    {
      "bufferView": 1,
      "byteOffset": 8168,
      "componentType": 5126,
      "count": 72,
      "max": [
        1.0,
        1.0
      ],
      "min": [
        0.0,
        0.0
      ],
      "type": "VEC2"
    },
    {
      "bufferView": 0,
      "byteOffset": 31440,
      "componentType": 5125,
      "count": 180,
      "type": "SCALAR"
    },
    {
      "bufferView": 2,
      "byteOffset": 46872,
      "componentType": 5126,
      "count": 70,
      "max": [
        3.1897661685943604,
        3.1074204444885254,
        12.373811721801758
      ],
      "min": [
        -3.986513376235962,
        -3.1074204444885254,
        8.654335975646973
      ],
      "type": "VEC3"
    },
    {
      "bufferView": 2,
      "byteOffset": 47712,
      "componentType": 5126,
      "count": 70,
      "max": [
        1.0,
        1.0,
        1.0
      ],
      "min": [
        -1.0,
        -1.0,
        -1.0
      ],
      "type": "VEC3"
    },
    {
      "bufferView": 1,
      "byteOffset": 8744,
      "componentType": 5126,
      "count": 70,
      "max": [
        1.0833333730697632,
        1.0
      ],
      "min": [
        0.06698727607727051,
        0.0
      ],
      "type": "VEC2"
    },
    {
      "bufferView": 0,
      "byteOffset": 32160,
      "componentType": 5125,
      "count": 180,
      "type": "SCALAR"
    }
  ],
  "asset": {
    "extras": {
      "author": "Einheri (https://sketchfab.com/Einheri)",
      "license": "CC-BY-4.0 (http://creativecommons.org/licenses/by/4.0/)",
      "source": "https://sketchfab.com/3d-models/fire-exting-4422afe841d346399e52938b929bb62c",
      "title": "Fire Exting"
    },
    "generator": "Sketchfab-12.67.0",
    "version": "2.0"
  },
  "bufferViews": [
    {
      "buffer": 0,
      "byteLength": 32880,
      "name": "floatBufferViews",
      "target": 34963
    },
    {
      "buffer": 0,
      "byteLength": 9304,
      "byteOffset": 32880,
      "byteStride": 8,
      "name": "floatBufferViews",
      "target": 34962
    },
    {
      "buffer": 0,
      "byteLength": 48552,
      "byteOffset": 42184,
      "byteStride": 12,
      "name": "floatBufferViews",
      "target": 34962
    }
  ],
  "buffers": [
    {
      "byteLength": 90736,
      "uri": "scene.bin"
    }
  ],
  "images": [
    {
      "uri": "textures/Extingusher_base_baseColor.jpeg"
    },
    {
      "uri": "textures/gauge_baseColor.jpeg"
    },
    {
      "uri": "textures/cream_baseColor.jpeg"
    },
    {
      "uri": "textures/metal_baseColor.jpeg"
    }
  ],
  "materials": [
    {
      "doubleSided": true,
      "name": "Extingusher_base",
      "pbrMetallicRoughness": {
        "baseColorTexture": {
          "index": 0
        },
        "metallicFactor": 0.0,
        "roughnessFactor": 0.6
      }
    },
    {
      "doubleSided": true,
      "name": "gauge",
      "pbrMetallicRoughness": {
        "baseColorTexture": {
          "index": 1
        },
        "metallicFactor": 0.0,
        "roughnessFactor": 0.6
      }
    },
    {
      "doubleSided": true,
      "name": "RootNode",
      "pbrMetallicRoughness": {
        "baseColorFactor": [
          0.0,
          0.0,
          0.0,
          1.0
        ],
        "metallicFactor": 0.0,
        "roughnessFactor": 0.6
      }
    },
    {
      "doubleSided": true,
      "name": "cream",
      "pbrMetallicRoughness": {
        "baseColorTexture": {
          "index": 2
        },
        "metallicFactor": 0.0,
        "roughnessFactor": 0.6
      }
    },
    {
      "doubleSided": true,
      "name": "metal",
      "pbrMetallicRoughness": {
        "baseColorTexture": {
          "index": 3
        },
        "metallicFactor": 0.0,
        "roughnessFactor": 0.6
      }
    }
  ],
  "meshes": [
    {
      "name": "Object_0",
      "primitives": [
        {
          "attributes": {
            "NORMAL": 1,
            "POSITION": 0,
            "TEXCOORD_0": 2
          },
          "indices": 3,
          "material": 0,
          "mode": 4
        }
      ]
    },
    {
      "name": "Object_1",
      "primitives": [
        {
          "attributes": {
            "NORMAL": 5,
            "POSITION": 4,
            "TEXCOORD_0": 6
          },
          "indices": 7,
          "material": 1,
          "mode": 4
        }
      ]
    },
    {
      "name": "Object_2",
      "primitives": [
        {
          "attributes": {
            "NORMAL": 9,
            "POSITION": 8
          },
          "indices": 10,
          "material": 2,
          "mode": 4
        }
      ]
    },
    {
      "name": "Object_3",
      "primitives": [
        {
          "attributes": {
            "NORMAL": 12,
            "POSITION": 11,
            "TEXCOORD_0": 13
          },
          "indices": 14,
          "material": 3,
          "mode": 4
        }
      ]
    },
    {
      "name": "Object_4",
      "primitives": [
        {
          "attributes": {
            "NORMAL": 16,
            "POSITION": 15,
            "TEXCOORD_0": 17
          },
          "indices": 18,
          "material": 3,
          "mode": 4
        }
      ]
    },
    {
      "name": "Object_5",
      "primitives": [
        {
          "attributes": {
            "NORMAL": 20,
            "POSITION": 19,
            "TEXCOORD_0": 21
          },
          "indices": 22,
          "material": 4,
          "mode": 4
        }
      ]
    }
  ],
  "nodes": [
    {
      "children": [
        1
      ],
      "matrix": [
        1.0,
        0.0,
        0.0,
        0.0,
        0.0,
        2.220446049250313e-16,
        -1.0,
        0.0,
        0.0,
        1.0,
        2.220446049250313e-16,
        0.0,
        0.0,
        0.0,
        0.0,
        1.0
      ],
      "name": "Sketchfab_model"
    },
    {
      "children": [
        2
      ],
      "name": "root"
    },
    {
      "children": [
        3
      ],
      "matrix": [
        1.0,
        0.0,
        0.0,
        0.0,
        0.0,
        2.220446049250313e-16,
        1.0,
        0.0,
        0.0,
        -1.0,
        2.220446049250313e-16,
        0.0,
        0.0,
        0.0,
        0.0,
        1.0
      ],
      "name": "GLTF_SceneRootNode"
    },
    {
      "children": [
        4
      ],
      "matrix": [
        1.0,
        0.0,
        -0.0,
        0.0,
        -0.0,
        0.0,
        -1.0,
        0.0,
        0.0,
        1.0,
        0.0,
        0.0,
        0.0,
        0.0,
        0.0,
        1.0
      ],
      "name": "RootNode (gltf orientation matrix)_0"
    },
    {
      "children": [
        5
      ],
      "name": "RootNode (model correction matrix)_1"
    },
    {
      "children": [
        6
      ],
      "matrix": [
        1.0,
        0.0,
        0.0,
        0.0,
        0.0,
        0.0,
        1.0,
        0.0,
        0.0,
        -1.0,
        0.0,
        0.0,
        0.0,
        0.0,
        0.0,
        1.0
      ],
      "name": "42b51f3740554fb5bb9db1474b83dba8.fbx_2"
    },
    {
      "children": [
        7,
        10,
        13,
        16,
        19,
        22
      ],
      "name": "RootNode_3"
    },
    {
      "children": [
        8
      ],
      "matrix": [
        1.0,
        0.0,
        0.0,
        0.0,
        0.0,
        2.220446049250313e-16,
        -1.0,
        0.0,
        0.0,
        1.151258111000061,
        2.556306524237464e-16,
        0.0,
        -0.20585298538208008,
        0.02083611488342285,
        -0.10066413879394531,
        1.0
      ],
      "name": "Cylinder001_4"
    },
    {
      "children": [
        9
      ],
      "name": "Cylinder001_Extingusher base_0_5"
    },
    {
      "mesh": 0,
      "name": "Object_9"
    },
    {
      "children": [
        11
      ],
      "matrix": [
        -0.00014171736256685108,
        0.051478348672389984,
        3.125536272527036e-18,
        0.0,
        -0.051477883011102676,
        -0.0001417160965502262,
        -0.00021836614178027958,
        0.0,
        -0.00021836531232111156,
        -6.011489972479467e-07,
        0.051478080451488495,
        0.0,
        -0.18973636627197266,
        68.81056213378906,
        1.9346332550048828,
        1.0
      ],
      "name": "Cylinder002_6"
    },
    {
      "children": [
        12
      ],
      "name": "Cylinder002_gauge_0_7"
    },
    {
      "mesh": 1,
      "name": "Object_12"
    },
    {
      "children": [
        14
      ],
      "matrix": [
        1.0,
        0.0,
        0.0,
        0.0,
        0.0,
        2.220446049250313e-16,
        -1.0,
        0.0,
        0.0,
        1.0,
        2.220446049250313e-16,
        0.0,
        -20.545392990112305,
        44.480072021484375,
        -0.06542205810546875,
        1.0
      ],
      "name": "Line001_8"
    },
    {
      "children": [
        15
      ],
      "name": "Line001__0_9"
    },
    {
      "mesh": 2,
      "name": "Object_15"
    },
    {
      "children": [
        17
      ],
      "matrix": [
        1.0,
        0.0,
        0.0,
        0.0,
        0.0,
        2.220446049250313e-16,
        -1.0,
        0.0,
        0.0,
        1.0,
        2.220446049250313e-16,
        0.0,
        10.415424346923828,
        70.51116180419922,
        -0.1717713177204132,
        1.0
      ],
      "name": "Box001_10"
    },
    {
      "children": [
        18
      ],
      "name": "Box001_cream_0_11"
    },
    {
      "mesh": 3,
      "name": "Object_18"
    },
    {
      "children": [
        20
      ],
      "matrix": [
        1.0,
        0.0,
        0.0,
        0.0,
        0.0,
        2.220446049250313e-16,
        -1.0,
        0.0,
        0.0,
        1.0,
        2.220446049250313e-16,
        0.0,
        12.856793403625488,
        70.81964874267578,
        -0.15461969375610352,
        1.0
      ],
      "name": "Box002_12"
    },
    {
      "children": [
        21
      ],
      "name": "Box002_cream_0_13"
    },
    {
      "mesh": 4,
      "name": "Object_21"
    },
    {
      "children": [
        23
      ],
      "matrix": [
        -0.03001256100833416,
        -0.6519978642463684,
        -1.449259079071123e-16,
        0.0,
        0.0,
        1.449259079071123e-16,
        -0.6526882648468018,
        0.0,
        0.6519978642463684,
        -0.03001256100833416,
        0.0,
        0.0,
        -10.665802001953125,
        68.62590789794922,
        -0.0863337516784668,
        1.0
      ],
      "name": "Cylinder004_14"
    },
    {
      "children": [
        24
      ],
      "name": "Cylinder004_metal_0_15"
    },
    {
      "mesh": 5,
      "name": "Object_24"
    }
  ],
  "samplers": [
    {
      "magFilter": 9729,
      "minFilter": 9987,
      "wrapS": 10497,
      "wrapT": 10497
    }
  ],
  "scene": 0,
  "scenes": [
    {
      "name": "Sketchfab_Scene",
      "nodes": [
        0
      ]
    }
  ],
  "textures": [
    {
      "sampler": 0,
      "source": 0
    },
    {
      "sampler": 0,
      "source": 1
    },
    {
      "sampler": 0,
      "source": 2
    },
    {
      "sampler": 0,
      "source": 3
    }
  ]
}
