{
  "accessors": [
    {
      "bufferView": 2,
      "componentType": 5126,
      "count": 614,
      "max": [
        8.015186309814453,
        1.1567726135253906,
        11.40331745147705
      ],
      "min": [
        -6.659832000732422,
        -0.019043445587158203,
        -11.40331745147705
      ],
      "type": "VEC3"
    },
    {
      "bufferView": 2,
      "byteOffset": 7368,
      "componentType": 5126,
      "count": 614,
      "max": [
        0.9999549388885498,
        1.0,
        0.9999984502792358
      ],
      "min": [
        -0.9999191761016846,
        -0.9999999403953552,
        -1.0
      ],
      "type": "VEC3"
    },
    {
      "bufferView": 1,
      "componentType": 5126,
      "count": 614,
      "max": [
        0.9914253354072571,
        0.9906579256057739
      ],
      "min": [
        0.006824903190135956,
        0.21126824617385864
      ],
      "type": "VEC2"
    },
    {
      "bufferView": 0,
      "componentType": 5125,
      "count": 2688,
      "type": "SCALAR"
    },
    {
      "bufferView": 2,
      "byteOffset": 14736,
      "componentType": 5126,
      "count": 121,
      "max": [
        8.015186309814453,
        0.904654860496521,
        2.8670806884765625
      ],
      "min": [
        -6.659832000732422,
        0.7203229069709778,
        -11.40331745147705
      ],
      "type": "VEC3"
    },
    {
      "bufferView": 2,
      "byteOffset": 16188,
      "componentType": 5126,
      "count": 121,
      "max": [
        0.9205371737480164,
        0.9999673962593079,
        0.7723928689956665
      ],
      "min": [
        -0.9204543232917786,
        0.18563808500766754,
        -0.9191863536834717
      ],
      "type": "VEC3"
    },
    {
      "bufferView": 1,
      "byteOffset": 4912,
      "componentType": 5126,
      "count": 121,
      "max": [
        0.9839579463005066,
        0.9832887649536133
      ],
      "min": [
        0.5154830813407898,
        0.5261905193328857
      ],
      "type": "VEC2"
    },
    {
      "bufferView": 0,
      "byteOffset": 10752,
      "componentType": 5125,
      "count": 534,
      "type": "SCALAR"
    },
    {
      "bufferView": 2,
      "byteOffset": 17640,
      "componentType": 5126,
      "count": 120,
      "max": [
        2.137716293334961,
        1.1567726135253906,
        11.368664741516113
      ],
      "min": [
        -0.8262777328491211,
        -0.019043445587158203,
        2.992682456970215
      ],
      "type": "VEC3"
    },
    {
      "bufferView": 2,
      "byteOffset": 19080,
      "componentType": 5126,
      "count": 120,
      "max": [
        0.9205033183097839,
        1.0,
        0.9998738169670105
      ],
      "min": [
        -0.9842163920402527,
        -0.9999999403953552,
        -0.05992712080478668
      ],
      "type": "VEC3"
    },
    {
      "bufferView": 1,
      "byteOffset": 5880,
      "componentType": 5126,
      "count": 120,
      "max": [
        0.6903184056282043,
        0.37126362323760986
      ],
      "min": [
        0.28609520196914673,
        0.025679826736450195
      ],
      "type": "VEC2"
    },
    {
      "bufferView": 0,
      "byteOffset": 12888,
      "componentType": 5125,
      "count": 546,
      "type": "SCALAR"
    }
  ],
  "asset": {
    "extras": {
      "author": "timtime (https://sketchfab.com/timislav)",
      "license": "CC-BY-4.0 (http://creativecommons.org/licenses/by/4.0/)",
      "source": "https://sketchfab.com/3d-models/table-tennis-bat-8df2aed0adcd423f8eaa320f3b5bcc58",
      "title": "table tennis bat"
    },
    "generator": "Sketchfab-13.30.0",
    "version": "2.0"
  },
  "bufferViews": [
    {
      "buffer": 0,
      "byteLength": 15072,
      "name": "floatBufferViews",
      "target": 34963
    },
    {
      "buffer": 0,
      "byteLength": 6840,
      "byteOffset": 15072,
      "byteStride": 8,
      "name": "floatBufferViews",
      "target": 34962
    },
    {
      "buffer": 0,
      "byteLength": 20520,
      "byteOffset": 21912,
      "byteStride": 12,
      "name": "floatBufferViews",
      "target": 34962
    }
  ],
  "buffers": [
    {
      "byteLength": 42432,
      "uri": "scene.bin"
    }
  ],
  "images": [
    {
      "uri": "textures/Material_0_metallicRoughness.png"
    }
  ],
  "materials": [
    {
      "doubleSided": true,
      "name": "Material_0",
      "occlusionTexture": {
        "index": 0
      },
      "pbrMetallicRoughness": {
        "metallicRoughnessTexture": {
          "index": 0
        }
      }
    },
    {
      "doubleSided": true,
      "name": "Material.001",
      "pbrMetallicRoughness": {
        "baseColorFactor": [
          0.0295904,
          0.122041,
          0.8,
          1.0
        ],
        "metallicFactor": 0.0,
        "roughnessFactor": 0.5
      }
    },
    {
      "doubleSided": true,
      "name": "Material",
      "pbrMetallicRoughness": {
        "baseColorFactor": [
          0.0800118,
          0.0419906,
          0.0144441,
          1.0
        ],
        "metallicFactor": 0.0,
        "roughnessFactor": 0.5
      }
    }
  ],
  "meshes": [
    {
      "name": "Object_0",
      "primitives": [
        {
          "attributes": {
            "NORMAL": 1,
            "POSITION": 0,
            "TEXCOORD_0": 2
          },
          "indices": 3,
          "material": 0,
          "mode": 4
        }
      ]
    },
    {
      "name": "Object_1",
      "primitives": [
        {
          "attributes": {
            "NORMAL": 5,
            "POSITION": 4,
            "TEXCOORD_0": 6
          },
          "indices": 7,
          "material": 1,
          "mode": 4
        }
      ]
    },
    {
      "name": "Object_2",
      "primitives": [
        {
          "attributes": {
            "NORMAL": 9,
            "POSITION": 8,
            "TEXCOORD_0": 10
          },
          "indices": 11,
          "material": 2,
          "mode": 4
        }
      ]
    }
  ],
  "nodes": [
    {
      "children": [
        1
      ],
      "matrix": [
        1.0,
        0.0,
        0.0,
        0.0,
        0.0,
        2.220446049250313e-16,
        -1.0,
        0.0,
        0.0,
        1.0,
        2.220446049250313e-16,
        0.0,
        0.0,
        0.0,
        0.0,
        1.0
      ],
      "name": "Sketchfab_model"
    },
    {
      "children": [
        2
      ],
      "name": "root"
    },
    {
      "children": [
        3
      ],
      "matrix": [
        1.0,
        0.0,
        0.0,
        0.0,
        0.0,
        2.220446049250313e-16,
        1.0,
        0.0,
        0.0,
        -1.0,
        2.220446049250313e-16,
        0.0,
        0.0,
        0.0,
        0.0,
        1.0
      ],
      "name": "GLTF_SceneRootNode"
    },
    {
      "children": [
        4
      ],
      "matrix": [
        0.2869311571121216,
        0.0,
        0.0,
        0.0,
        0.0,
        0.2869311571121216,
        0.0,
        0.0,
        0.0,
        0.0,
        0.2869311571121216,
        0.0,
        0.0,
        0.0,
        0.0,
        1.0
      ],
      "name": "RootNode.0_1"
    },
    {
      "children": [
        5,
        6,
        7
      ],
      "name": "table_tennis.1_0"
    },
    {
      "mesh": 0,
      "name": "Object_5"
    },
    {
      "mesh": 1,
      "name": "Object_6"
    },
    {
      "mesh": 2,
      "name": "Object_7"
    }
  ],
  "samplers": [
    {
      "magFilter": 9729,
      "minFilter": 9987,
      "wrapS": 10497,
      "wrapT": 10497
    }
  ],
  "scene": 0,
  "scenes": [
    {
      "name": "Sketchfab_Scene",
      "nodes": [
        0
      ]
    }
  ],
  "textures": [
    {
      "sampler": 0,
      "source": 0
    }
  ]
}
