{
    "asset": {
        "version": "1.0",
        "generator": "Open Asset Import Library (assimp v5.2.9116af3d)"
    },
    "accessors": {
        "meshes[0]_accessor": {
            "bufferView": "meshes[0]_view",
            "byteOffset": 0,
            "byteStride": 0,
            "componentType": 5126,
            "count": 6162,
            "type": "VEC3",
            "max": [
                -24.224000930786134,
                -175.0,
                370.0
            ],
            "min": [
                -432.32501220703127,
                -320.0,
                0.0
            ]
        },
        "meshes[0]_accessor_0": {
            "bufferView": "meshes[0]_view_0",
            "byteOffset": 0,
            "byteStride": 0,
            "componentType": 5123,
            "count": 37230,
            "type": "SCALAR",
            "max": [
                6161
            ],
            "min": [
                0
            ]
        }
    },
    "buffers": {
        "C:\\Users\\Vinesh_Reddy\\AppData\\Local\\Temp\\Filestar\\9308a6d7-fbd9-4e36-86e1-1053485aaa6a\\qeqlidlm": {
            "byteLength": 148404,
            "type": "arraybuffer",
            "uri": "C:\\Users\\Vinesh_Reddy\\AppData\\Local\\Temp\\Filestar\\9308a6d7-fbd9-4e36-86e1-1053485aaa6a\\qeqlidlm.bin"
        }
    },
    "bufferViews": {
        "meshes[0]_view": {
            "buffer": "C:\\Users\\Vinesh_Reddy\\AppData\\Local\\Temp\\Filestar\\9308a6d7-fbd9-4e36-86e1-1053485aaa6a\\qeqlidlm",
            "byteOffset": 0,
            "byteLength": 73944,
            "target": 34962
        },
        "meshes[0]_view_0": {
            "buffer": "C:\\Users\\Vinesh_Reddy\\AppData\\Local\\Temp\\Filestar\\9308a6d7-fbd9-4e36-86e1-1053485aaa6a\\qeqlidlm",
            "byteOffset": 73944,
            "byteLength": 74460,
            "target": 34963
        }
    },
    "materials": {
        "lambert2SG.001": {
            "values": {
                "ambient": [
                    0.0,
                    0.0,
                    0.0,
                    1.0
                ],
                "diffuse": [
                    1.0,
                    1.0,
                    1.0,
                    1.0
                ],
                "specular": [
                    0.0,
                    0.0,
                    0.0,
                    1.0
                ],
                "emission": [
                    0.0,
                    0.0,
                    0.0,
                    1.0
                ],
                "shininess": 250.0
            }
        },
        "material": {
            "values": {
                "ambient": [
                    0.0,
                    0.0,
                    0.0,
                    1.0
                ],
                "diffuse": [
                    1.0,
                    1.0,
                    1.0,
                    1.0
                ],
                "specular": [
                    0.0,
                    0.0,
                    0.0,
                    1.0
                ],
                "emission": [
                    0.0,
                    0.0,
                    0.0,
                    1.0
                ],
                "shininess": 0.0
            }
        }
    },
    "meshes": {
        "meshes[0]": {
            "name": "",
            "primitives": [
                {
                    "mode": 4,
                    "material": "lambert2SG.001",
                    "indices": "meshes[0]_accessor_0",
                    "attributes": {
                        "POSITION": "meshes[0]_accessor"
                    }
                }
            ]
        }
    },
    "nodes": {
        "nodes[1]": {
            "matrix": [
                1.0,
                0.0,
                0.0,
                0.0,
                0.0,
                2.220446049250313e-16,
                -1.0,
                0.0,
                0.0,
                1.0,
                2.220446049250313e-16,
                0.0,
                0.0,
                0.0,
                0.0,
                1.0
            ],
            "children": [
                "Mesh_Mesh_head_geo.001_lambert2SG.001"
            ]
        },
        "Mesh_Mesh_head_geo.001_lambert2SG.001": {
            "meshes": [
                "meshes[0]"
            ]
        }
    },
    "scenes": {
        "defaultScene": {
            "nodes": [
                "nodes[1]"
            ]
        }
    },
    "scene": "defaultScene"
}