{
  "accessors": [
    {
      "bufferView": 2,
      "componentType": 5126,
      "count": 65532,
      "max": [
        67.9740219116211,
        68.06951141357422,
        -39.192508697509766
      ],
      "min": [
        -67.93814849853516,
        -68.06951141357422,
        -72.71420288085938
      ],
      "type": "VEC3"
    },
    {
      "bufferView": 2,
      "byteOffset": 786384,
      "componentType": 5126,
      "count": 65532,
      "max": [
        0.9999498724937439,
        0.9999250173568726,
        0.9999998807907104
      ],
      "min": [
        -0.9999724626541138,
        -0.9993118643760681,
        -0.9930744171142578
      ],
      "type": "VEC3"
    },
    {
      "bufferView": 1,
      "componentType": 5126,
      "count": 65532,
      "max": [
        0.9987800121307373,
        0.9950600266456604
      ],
      "min": [
        0.003719999920576811,
        0.007639999967068434
      ],
      "type": "VEC2"
    },
    {
      "bufferView": 0,
      "componentType": 5125,
      "count": 347967,
      "type": "SCALAR"
    },
    {
      "bufferView": 2,
      "byteOffset": 1572768,
      "componentType": 5126,
      "count": 65533,
      "max": [
        67.926513671875,
        67.95733642578125,
        -65.00541687011719
      ],
      "min": [
        -67.9740219116211,
        -67.67659759521484,
        -74.02424621582031
      ],
      "type": "VEC3"
    },
    {
      "bufferView": 2,
      "byteOffset": 2359164,
      "componentType": 5126,
      "count": 65533,
      "max": [
        0.9977993369102478,
        0.9793599843978882,
        0.9999993443489075
      ],
      "min": [
        -0.9999613761901855,
        -0.9998719096183777,
        -1.0
      ],
      "type": "VEC3"
    },
    {
      "bufferView": 1,
      "byteOffset": 524256,
      "componentType": 5126,
      "count": 65533,
      "max": [
        0.9987800121307373,
        0.9646499752998352
      ],
      "min": [
        0.0038300000596791506,
        0.05347999930381775
      ],
      "type": "VEC2"
    },
    {
      "bufferView": 0,
      "byteOffset": 1391868,
      "componentType": 5125,
      "count": 84414,
      "type": "SCALAR"
    },
    {
      "bufferView": 2,
      "byteOffset": 3145560,
      "componentType": 5126,
      "count": 65532,
      "max": [
        59.84709930419922,
        42.05234909057617,
        -73.0182876586914
      ],
      "min": [
        -67.41327667236328,
        -59.04610824584961,
        -74.02424621582031
      ],
      "type": "VEC3"
    },
    {
      "bufferView": 2,
      "byteOffset": 3931944,
      "componentType": 5126,
      "count": 65532,
      "max": [
        0.7783146500587463,
        0.6944637298583984,
        -0.3681439161300659
      ],
      "min": [
        -0.8217759132385254,
        -0.643523097038269,
        -1.0
      ],
      "type": "VEC3"
    },
    {
      "bufferView": 1,
      "byteOffset": 1048520,
      "componentType": 5126,
      "count": 65532,
      "max": [
        0.9987800121307373,
        0.8791499733924866
      ],
      "min": [
        0.3161599934101105,
        0.6667500138282776
      ],
      "type": "VEC2"
    },
    {
      "bufferView": 0,
      "byteOffset": 1729524,
      "componentType": 5125,
      "count": 65532,
      "type": "SCALAR"
    },
    {
      "bufferView": 2,
      "byteOffset": 4718328,
      "componentType": 5126,
      "count": 65534,
      "max": [
        64.96823120117188,
        67.41050720214844,
        -67.93998718261719
      ],
      "min": [
        -67.92558288574219,
        -64.2029037475586,
        -74.02404022216797
      ],
      "type": "VEC3"
    },
    {
      "bufferView": 2,
      "byteOffset": 5504736,
      "componentType": 5126,
      "count": 65534,
      "max": [
        0.9095275402069092,
        0.9855331778526306,
        0.8483856320381165
      ],
      "min": [
        -0.996759295463562,
        -0.833042562007904,
        -1.0
      ],
      "type": "VEC3"
    },
    {
      "bufferView": 1,
      "byteOffset": 1572776,
      "componentType": 5126,
      "count": 65534,
      "max": [
        0.9987800121307373,
        0.887969970703125
      ],
      "min": [
        0.0044200001284480095,
        0.18937000632286072
      ],
      "type": "VEC2"
    },
    {
      "bufferView": 0,
      "byteOffset": 1991652,
      "componentType": 5125,
      "count": 66351,
      "type": "SCALAR"
    },
    {
      "bufferView": 2,
      "byteOffset": 6291144,
      "componentType": 5126,
      "count": 25159,
      "max": [
        67.83170318603516,
        68.05628204345703,
        -65.42610931396484
      ],
      "min": [
        -67.93753051757813,
        -67.65081787109375,
        -71.81880950927734
      ],
      "type": "VEC3"
    },
    {
      "bufferView": 2,
      "byteOffset": 6593052,
      "componentType": 5126,
      "count": 25159,
      "max": [
        0.999921977519989,
        0.9984944462776184,
        0.9999998807907104
      ],
      "min": [
        -0.9940096139907837,
        -0.999109148979187,
        -0.999614417552948
      ],
      "type": "VEC3"
    },
    {
      "bufferView": 1,
      "byteOffset": 2097048,
      "componentType": 5126,
      "count": 25159,
      "max": [
        0.9987800121307373,
        0.9929500222206116
      ],
      "min": [
        0.003920000046491623,
        0.0037700000684708357
      ],
      "type": "VEC2"
    },
    {
      "bufferView": 0,
      "byteOffset": 2257056,
      "componentType": 5125,
      "count": 49356,
      "type": "SCALAR"
    }
  ],
  "asset": {
    "extras": {
      "author": "Ronen (https://sketchfab.com/ronenh)",
      "license": "CC-BY-ND-4.0 (http://creativecommons.org/licenses/by-nd/4.0/)",
      "source": "https://sketchfab.com/3d-models/used-paddle-ball-f509fb43ad4647238cb4c74b38ab9c8a",
      "title": "Used Paddle & Ball"
    },
    "generator": "Sketchfab-12.65.0",
    "version": "2.0"
  },
  "bufferViews": [
    {
      "buffer": 0,
      "byteLength": 2454480,
      "name": "floatBufferViews",
      "target": 34963
    },
    {
      "buffer": 0,
      "byteLength": 2298320,
      "byteOffset": 2454480,
      "byteStride": 8,
      "name": "floatBufferViews",
      "target": 34962
    },
    {
      "buffer": 0,
      "byteLength": 6894960,
      "byteOffset": 4752800,
      "byteStride": 12,
      "name": "floatBufferViews",
      "target": 34962
    }
  ],
  "buffers": [
    {
      "byteLength": 11647760,
      "uri": "scene.bin"
    }
  ],
  "extensionsUsed": [
    "KHR_materials_unlit"
  ],
  "images": [
    {
      "uri": "textures/material0_baseColor.jpeg"
    }
  ],
  "materials": [
    {
      "doubleSided": true,
      "emissiveTexture": {
        "index": 0
      },
      "extensions": {
        "KHR_materials_unlit": {}
      },
      "name": "material0",
      "pbrMetallicRoughness": {
        "baseColorTexture": {
          "index": 0
        },
        "metallicFactor": 0.0
      }
    }
  ],
  "meshes": [
    {
      "name": "Object_0",
      "primitives": [
        {
          "attributes": {
            "NORMAL": 1,
            "POSITION": 0,
            "TEXCOORD_0": 2
          },
          "indices": 3,
          "material": 0,
          "mode": 4
        }
      ]
    },
    {
      "name": "Object_1",
      "primitives": [
        {
          "attributes": {
            "NORMAL": 5,
            "POSITION": 4,
            "TEXCOORD_0": 6
          },
          "indices": 7,
          "material": 0,
          "mode": 4
        }
      ]
    },
    {
      "name": "Object_2",
      "primitives": [
        {
          "attributes": {
            "NORMAL": 9,
            "POSITION": 8,
            "TEXCOORD_0": 10
          },
          "indices": 11,
          "material": 0,
          "mode": 4
        }
      ]
    },
    {
      "name": "Object_3",
      "primitives": [
        {
          "attributes": {
            "NORMAL": 13,
            "POSITION": 12,
            "TEXCOORD_0": 14
          },
          "indices": 15,
          "material": 0,
          "mode": 4
        }
      ]
    },
    {
      "name": "Object_4",
      "primitives": [
        {
          "attributes": {
            "NORMAL": 17,
            "POSITION": 16,
            "TEXCOORD_0": 18
          },
          "indices": 19,
          "material": 0,
          "mode": 4
        }
      ]
    }
  ],
  "nodes": [
    {
      "children": [
        1
      ],
      "matrix": [
        1.0,
        0.0,
        0.0,
        0.0,
        0.0,
        2.220446049250313e-16,
        -1.0,
        0.0,
        0.0,
        1.0,
        2.220446049250313e-16,
        0.0,
        0.0,
        0.0,
        0.0,
        1.0
      ],
      "name": "Sketchfab_model"
    },
    {
      "children": [
        2,
        3,
        4,
        5,
        6
      ],
      "name": "model_Used Paddle & Ball_20200330_151807175.obj.cleaner.materialmerger.gles"
    },
    {
      "mesh": 0,
      "name": "Object_2"
    },
    {
      "mesh": 1,
      "name": "Object_3"
    },
    {
      "mesh": 2,
      "name": "Object_4"
    },
    {
      "mesh": 3,
      "name": "Object_5"
    },
    {
      "mesh": 4,
      "name": "Object_6"
    }
  ],
  "samplers": [
    {
      "magFilter": 9729,
      "minFilter": 9987,
      "wrapS": 10497,
      "wrapT": 10497
    }
  ],
  "scene": 0,
  "scenes": [
    {
      "name": "Sketchfab_Scene",
      "nodes": [
        0
      ]
    }
  ],
  "textures": [
    {
      "sampler": 0,
      "source": 0
    }
  ]
}
